<?xml version="1.0" encoding="utf-8"?>
<!-- Generator: Adobe Illustrator 22.1.0, SVG Export Plug-In . SVG Version: 6.00 Build 0)  -->
<svg version="1.1" id="Capa_1" xmlns="http://www.w3.org/2000/svg" xmlns:xlink="http://www.w3.org/1999/xlink" x="0px" y="0px"
	 viewBox="0 0 40 40" style="enable-background:new 0 0 40 40;" xml:space="preserve">
<style type="text/css">
	.st0{fill:#FF0099;}
	.st1{fill:#00FFFF;}
	.st2{fill:#000099;}
</style>
<g>
	<path class="st0" d="M35.7,4.3c0-2.6-1.6-3.4-3.6-1.6L16.5,16.3c-2,1.7-2,4.6,0,6.3l15.6,13.7c2,1.7,3.6,1,3.6-1.6V4.3z"/>
</g>
<g>
	<path class="st1" d="M3.4,4.3C3.4,1.6,5,0.9,7,2.7l9.6,8.5c2,1.7,4.5,4.3,5.6,5.8c1.1,1.4,1.2,3.7,0.1,5.1
		c-1.1,1.4-3.5,3.9-5.5,5.6L7,36.3c-2,1.7-3.6,1-3.6-1.6V4.3z"/>
</g>
<path class="st2" d="M19.5,25.4l4.2-4.2h0c0.4-0.4,0.7-1,0.7-1.7c0-0.6-0.3-1.2-0.7-1.7v0l-4.2-4.2h0l-4.2,4.2v0
	c-0.4,0.4-0.7,1-0.7,1.7c0,0.6,0.3,1.2,0.7,1.7h0L19.5,25.4L19.5,25.4z"/>
</svg>
